<svg xmlns="http://www.w3.org/2000/svg">
  <defs>
    <!-- astro icon -->
    <symbol id="astro" viewBox="0 0 85 107">
      <path d="M27.5894 91.1365C22.7555 86.7178 21.3444 77.4335 23.3583 70.7072C26.8503 74.948 31.6888 76.2914 36.7005 77.0497C44.4375 78.2199 52.0359 77.7822 59.2232 74.2459C60.0454 73.841 60.8052 73.3027 61.7036 72.7574C62.378 74.714 62.5535 76.6892 62.318 78.6996C61.7452 83.5957 59.3086 87.3778 55.4332 90.2448C53.8835 91.3916 52.2437 92.4167 50.6432 93.4979C45.7262 96.8213 44.3959 100.718 46.2435 106.386C46.2874 106.525 46.3267 106.663 46.426 107C43.9155 105.876 42.0817 104.24 40.6845 102.089C39.2087 99.8193 38.5066 97.3081 38.4696 94.5909C38.4511 93.2686 38.4511 91.9345 38.2733 90.6309C37.8391 87.4527 36.3471 86.0297 33.5364 85.9478C30.6518 85.8636 28.37 87.6469 27.7649 90.4554C27.7187 90.6707 27.6517 90.8837 27.5847 91.1341L27.5894 91.1365Z" fill="#F041FF"/>
      <path d="M0 69.5866C0 69.5866 14.3139 62.6137 28.6678 62.6137L39.4901 29.1204C39.8953 27.5007 41.0783 26.3999 42.4139 26.3999C43.7495 26.3999 44.9325 27.5007 45.3377 29.1204L56.1601 62.6137C73.1601 62.6137 84.8278 69.5866 84.8278 69.5866C84.8278 69.5866 60.5145 3.35233 60.467 3.21944C59.7692 1.2612 58.5911 0 57.0029 0H27.8274C26.2392 0 25.1087 1.2612 24.3634 3.21944C24.3108 3.34983 0 69.5866 0 69.5866Z" fill="currentColor"/>
    </symbol>

    <!-- javascript icon -->
    <symbol id="javascript" viewBox="0 0 630 630">
      <rect width="630" height="630" fill="#f7df1e"/>
      <path fill="black" d="m423.2 492.19c12.69 20.72 29.2 35.95 58.4 35.95 24.53 0 40.2-12.26 40.2-29.2 0-20.3-16.1-27.49-43.1-39.3l-14.8-6.35c-42.72-18.2-71.1-41-71.1-89.2 0-44.4 33.83-78.2 86.7-78.2 37.64 0 64.7 13.1 84.2 47.4l-46.1 29.6c-10.15-18.2-21.1-25.37-38.1-25.37-17.34 0-28.33 11-28.33 25.37 0 17.76 11 24.95 36.4 35.95l14.8 6.34c50.3 21.57 78.7 43.56 78.7 93 0 53.3-41.87 82.5-98.1 82.5-54.98 0-90.5-26.2-107.88-60.54zm-209.13 5.13c9.3 16.5 17.76 30.45 38.1 30.45 19.45 0 31.72-7.61 31.72-37.2v-201.3h59.2v202.1c0 61.3-35.94 89.2-88.4 89.2-47.4 0-74.85-24.53-88.81-54.075z"/>
    </symbol>

    <!-- typescript icon -->
    <symbol id="typescript" fill="none" viewBox="0 0 512 512">
      <rect fill="#3178c6" height="512" rx="50" width="512"/>
      <rect fill="#3178c6" height="512" rx="50" width="512"/>
      <path clip-rule="evenodd" fill="#fff" fill-rule="evenodd" d="m316.939 407.424v50.061c8.138 4.172 17.763 7.3 28.875 9.386s22.823 3.129 35.135 3.129c11.999 0 23.397-1.147 34.196-3.442 10.799-2.294 20.268-6.075 28.406-11.342 8.138-5.266 14.581-12.15 19.328-20.65s7.121-19.007 7.121-31.522c0-9.074-1.356-17.026-4.069-23.857s-6.625-12.906-11.738-18.225c-5.112-5.319-11.242-10.091-18.389-14.315s-15.207-8.213-24.18-11.967c-6.573-2.712-12.468-5.345-17.685-7.9-5.217-2.556-9.651-5.163-13.303-7.822-3.652-2.66-6.469-5.476-8.451-8.448-1.982-2.973-2.974-6.336-2.974-10.091 0-3.441.887-6.544 2.661-9.308s4.278-5.136 7.512-7.118c3.235-1.981 7.199-3.52 11.894-4.615 4.696-1.095 9.912-1.642 15.651-1.642 4.173 0 8.581.313 13.224.938 4.643.626 9.312 1.591 14.008 2.894 4.695 1.304 9.259 2.947 13.694 4.928 4.434 1.982 8.529 4.276 12.285 6.884v-46.776c-7.616-2.92-15.937-5.084-24.962-6.492s-19.381-2.112-31.066-2.112c-11.895 0-23.163 1.278-33.805 3.833s-20.006 6.544-28.093 11.967c-8.086 5.424-14.476 12.333-19.171 20.729-4.695 8.395-7.043 18.433-7.043 30.114 0 14.914 4.304 27.638 12.912 38.172 8.607 10.533 21.675 19.45 39.204 26.751 6.886 2.816 13.303 5.579 19.25 8.291s11.086 5.528 15.415 8.448c4.33 2.92 7.747 6.101 10.252 9.543 2.504 3.441 3.756 7.352 3.756 11.733 0 3.233-.783 6.231-2.348 8.995s-3.939 5.162-7.121 7.196-7.147 3.624-11.894 4.771c-4.748 1.148-10.303 1.721-16.668 1.721-10.851 0-21.597-1.903-32.24-5.71-10.642-3.806-20.502-9.516-29.579-17.13zm-84.159-123.342h64.22v-41.082h-179v41.082h63.906v182.918h50.874z"/>
    </symbol>

    <!-- tailwind icon -->
    <symbol id="tailwind" viewBox="0 0 47 40" fill="none">
      <path fill="#6366f1" d="M23.5 6.5C17.5 6.5 13.75 9.5 12.25 15.5C14.5 12.5 17.125 11.375 20.125 12.125C21.8367 12.5529 23.0601 13.7947 24.4142 15.1692C26.6202 17.4084 29.1734 20 34.75 20C40.75 20 44.5 17 46 11C43.75 14 41.125 15.125 38.125 14.375C36.4133 13.9471 35.1899 12.7053 33.8357 11.3308C31.6297 9.09158 29.0766 6.5 23.5 6.5ZM12.25 20C6.25 20 2.5 23 1 29C3.25 26 5.875 24.875 8.875 25.625C10.5867 26.0529 11.8101 27.2947 13.1642 28.6693C15.3702 30.9084 17.9234 33.5 23.5 33.5C29.5 33.5 33.25 30.5 34.75 24.5C32.5 27.5 29.875 28.625 26.875 27.875C25.1633 27.4471 23.9399 26.2053 22.5858 24.8307C20.3798 22.5916 17.8266 20 12.25 20Z"/>
    </symbol>

    <!-- bash icon -->
    <symbol id="bash" viewBox="0 0 100 100" fill="none">
      <path id="Vector" d="M87.3558 20.4229L55.8304 1.69405C52.1016 -0.509343 47.4405 -0.509343 43.627 1.69405L12.1016 20.4229C8.37276 22.6262 5.99988 26.7788 5.99988 31.2703V68.7279C5.99988 73.2194 8.28801 77.2872 12.1016 79.5754L43.627 98.3042C45.4914 99.4059 47.61 99.9991 49.7287 99.9991C51.8473 99.9991 53.966 99.4059 55.8304 98.3042L87.3558 79.5754C91.0846 77.372 93.4575 73.2194 93.4575 68.7279V31.1856C93.4575 26.7788 91.1693 22.6262 87.3558 20.4229Z" fill="white"/>
      <path id="Vector_2" d="M87.3559 20.4229L55.8305 1.69406C53.9661 0.592366 51.8474 -0.000854492 49.7288 -0.000854492C47.6102 -0.000854492 45.4915 0.592366 43.6271 1.69406L12.1017 20.4229C8.37288 22.6263 6 26.7788 6 31.2703V68.7279C6 73.2195 8.28814 77.2873 12.1017 79.5754L43.6271 98.3042C45.4915 99.4059 47.6102 99.9991 49.7288 99.9991C51.8474 99.9991 53.9661 99.4059 55.8305 98.3042L87.3559 79.5754C91.0847 77.372 93.4576 73.2195 93.4576 68.7279V31.1856C93.4576 26.7788 91.1695 22.6263 87.3559 20.4229ZM44.7288 96.2703L13.2034 77.5415C10.1525 75.6771 8.20339 72.2873 8.20339 68.6432V31.1856C8.20339 27.5415 10.1525 24.0669 13.2034 22.2873L44.7288 3.55847C46.2542 2.62626 47.9491 2.20253 49.7288 2.20253C51.5085 2.20253 53.2034 2.71101 54.7288 3.55847L86.2542 22.2873C88.8813 23.8127 90.5762 26.5246 91.0847 29.4907C90.0678 27.2873 87.6949 26.6093 84.8983 28.2195L55.1525 46.694C51.4237 48.8974 48.7118 51.2703 48.7118 55.7618V92.5415C48.7118 95.2533 49.8135 96.9483 51.4237 97.4567C50.9152 97.5415 50.322 97.6262 49.7288 97.6262C48.0339 97.711 46.2542 97.2025 44.7288 96.2703Z" fill="#2A3238"/>
      <path id="Vector_3" d="M79.1354 72.2872L71.2541 76.9482C71.0846 77.0329 70.9151 77.2024 70.9151 77.4566V79.4905C70.9151 79.7448 71.0846 79.8295 71.2541 79.7448L79.2202 74.9143C79.3897 74.8295 79.4744 74.5753 79.4744 74.321V72.5414C79.4744 72.2872 79.3049 72.2024 79.1354 72.2872Z" fill="#4DA925"/>
      <path id="Vector_4" d="M62.3558 54.9991C62.61 54.8296 62.7795 54.9991 62.8643 55.3381V58.05C63.966 57.6262 64.9829 57.4567 65.9151 57.711C66.0846 57.7957 66.1694 58.05 66.0846 58.3042L65.4914 60.6771C65.4066 60.8466 65.3219 61.0161 65.2372 61.1856C65.1524 61.2703 65.1524 61.2703 65.0677 61.2703C64.9829 61.2703 64.8982 61.355 64.8134 61.2703C64.3897 61.1855 63.4575 60.9313 61.9321 61.7788C60.3219 62.6262 59.7287 63.9822 59.8134 64.9991C59.8134 66.2703 60.4914 66.6093 62.61 66.6093C65.4914 66.694 66.7626 67.9652 66.8473 70.8466C66.8473 73.7279 65.3219 76.8635 62.949 78.7279L63.0338 81.4398C63.0338 81.7788 62.8643 82.1177 62.61 82.2872L60.9999 83.2194C60.7456 83.3889 60.5761 83.2194 60.4914 82.8805V80.2533C59.1355 80.8466 57.7795 80.9313 56.8473 80.5923C56.6778 80.5076 56.5931 80.2533 56.6778 79.9991L57.2711 77.5415C57.3558 77.372 57.4405 77.1178 57.5253 77.033C57.61 76.9483 57.61 76.9483 57.6948 76.9483C57.7795 76.8635 57.8643 76.8635 57.949 76.9483C58.8812 77.2872 60.1524 77.1177 61.2541 76.5245C62.7795 75.7618 63.7117 74.2364 63.7117 72.711C63.7117 71.355 62.949 70.7618 61.1694 70.7618C58.8812 70.7618 56.7626 70.3381 56.6778 66.9483C56.6778 64.1516 58.1185 61.2703 60.4067 59.4906V56.7788C60.4067 56.4398 60.5761 56.1008 60.8304 55.9313L62.3558 54.9991Z" fill="white"/>
    </symbol>


    <symbol id="" viewBox="0 0 630 630"></symbol>
    <symbol id="" viewBox="0 0 630 630"></symbol>
    <symbol id="" viewBox="0 0 630 630"></symbol>
    <symbol id="" viewBox="0 0 630 630"></symbol>
    <symbol id="" viewBox="0 0 630 630"></symbol>
    <symbol id="" viewBox="0 0 630 630"></symbol>
    <symbol id="" viewBox="0 0 630 630"></symbol>
    <symbol id="" viewBox="0 0 630 630"></symbol>
    <symbol id="" viewBox="0 0 630 630"></symbol>
    <symbol id="" viewBox="0 0 630 630"></symbol>
    <symbol id="" viewBox="0 0 630 630"></symbol>
    <symbol id="" viewBox="0 0 630 630"></symbol>
    <symbol id="" viewBox="0 0 630 630"></symbol>
    <symbol id="" viewBox="0 0 630 630"></symbol>
    <symbol id="" viewBox="0 0 630 630"></symbol>
    <symbol id="" viewBox="0 0 630 630"></symbol>
  </defs>
</svg>